<svg id="Layer_1" enable-background="new 0 0 512 512" height="512" viewBox="0 0 512 512" width="512" xmlns="http://www.w3.org/2000/svg"><g><path d="m225.095 220.497h61.811v97.476h-61.811z" fill="#ffc6a1"/><path d="m256 220.497h30.905v97.476h-30.905z" fill="#fdaa8e"/><path d="m256 317.973h-52.539v-40.169c0-1.857 1.506-3.363 3.363-3.363h29.504c10.864 0 19.672 8.807 19.672 19.672z" fill="#f3f3f3"/><path d="m256 317.973h52.539v-40.169c0-1.857-1.506-3.363-3.363-3.363h-29.504c-10.865 0-19.672 8.807-19.672 19.672z" fill="#e4e4e4"/><path d="m165.859 305.346h180.282v206.654h-180.282z" fill="#7be492"/><path d="m307.509 305.346h30.905v206.654h-30.905z" fill="#45d987"/><g fill="#fd9b7a"><path d="m184.948 159.102c0 16.473-10.118 29.826-22.598 29.826s-19.731-15.336-19.731-31.808 7.25-27.844 19.731-27.844 22.598 13.353 22.598 29.826z"/><path d="m327.052 159.102c0 16.473 10.118 29.826 22.598 29.826s19.731-15.336 19.731-31.808-7.25-27.844-19.731-27.844-22.598 13.353-22.598 29.826z"/></g><path d="m173.263 161.395v-61.209c0-43.058 34.906-77.964 77.964-77.964h9.547c43.058 0 77.964 34.906 77.964 77.964v61.209c0 45.626-36.987 82.613-82.613 82.613h-.249c-45.626 0-82.613-36.987-82.613-82.613z" fill="#ffc6a1"/><path d="m260.773 22.222h-9.547c-3.625 0-7.186.268-10.679.747 38.003 5.209 67.285 37.784 67.285 77.218v61.209c0 40.386-28.987 73.981-67.285 81.171 4.969.933 10.088 1.442 15.328 1.442h.25c45.626 0 82.613-36.987 82.613-82.613v-61.209c-.001-43.059-34.906-77.965-77.965-77.965z" fill="#fdaa8e"/><path d="m338.414 400.939h43.268v-58.506c0-20.482-16.604-37.087-37.087-37.087h-6.181z" fill="#e4e4e4"/><path d="m130.318 400.939h43.268v-95.593h-6.181c-20.482 0-37.087 16.604-37.087 37.087z" fill="#f3f3f3"/><path d="m358.307 75.734c-.639 43.679-19.573 62.31-19.573 62.31-43.185-27.363-61.361-81.767-61.361-81.767s-16.116 58.747-104.107 81.767c0 0-18.935-18.631-19.573-62.31-.396-27.52 35.345-75.734 102.307-75.734s102.54 59.575 102.307 75.734z" fill="#4380a0"/><g><path d="m256 0c-5.628 0-11.03.348-16.214.988 57.459 7.805 87.831 59.813 87.616 74.746-.301 20.605-4.674 35.631-9.21 45.761 6.096 6.058 12.929 11.725 20.542 16.549 0 0 18.935-18.631 19.573-62.31.233-16.159-35.345-75.734-102.307-75.734z" fill="#3b7191"/></g><circle cx="205.006" cy="147.217" fill="#29cef6" r="39.147"/><circle cx="306.994" cy="147.217" fill="#29cef6" r="39.147"/><path d="m306.994 100.57c-23.168 0-42.437 16.98-46.036 39.147h-9.916c-3.599-22.167-22.868-39.147-46.036-39.147-25.721 0-46.646 20.926-46.646 46.647s20.925 46.647 46.646 46.647c23.168 0 42.437-16.98 46.036-39.147h9.916c3.599 22.167 22.868 39.147 46.036 39.147 25.721 0 46.646-20.926 46.646-46.647s-20.925-46.647-46.646-46.647zm-101.988 78.294c-17.45 0-31.646-14.197-31.646-31.647s14.197-31.647 31.646-31.647c17.45 0 31.647 14.197 31.647 31.647s-14.197 31.647-31.647 31.647zm101.988 0c-17.45 0-31.647-14.197-31.647-31.647s14.197-31.647 31.647-31.647 31.646 14.197 31.646 31.647-14.196 31.647-31.646 31.647z" fill="#3a7190"/><path d="m404.5 512h-297c-2.209 0-4-1.791-4-4v-125.8c0-13.656 11.071-24.727 24.727-24.727h255.546c13.656 0 24.727 11.071 24.727 24.727v125.8c0 2.209-1.791 4-4 4z" fill="#4380a0"/><path d="m383.776 357.473h-30.918c13.658 0 24.73 11.069 24.73 24.724v129.803h26.912c2.209 0 4-1.791 4-4v-125.803c0-13.655-11.069-24.724-24.724-24.724z" fill="#3b7191"/><path d="m276.32 453.89-12.173-12.173c-4.499-4.499-11.794-4.499-16.293 0l-12.174 12.173c-4.499 4.499-4.499 11.794 0 16.293l12.173 12.173c4.499 4.499 11.794 4.499 16.293 0l12.173-12.173c4.5-4.499 4.5-11.794.001-16.293z" fill="#ffc328"/><g fill="#f3f3f3"><path d="m147.852 390.011c-2.929-2.929-7.678-2.929-10.606 0l-13.448 13.448c-2.929 2.929-2.929 7.678 0 10.606l13.271 13.271c1.464 1.464 3.384 2.197 5.303 2.197s3.839-.732 5.303-2.197c2.929-2.929 2.929-7.678 0-10.606l-7.967-7.967 8.145-8.145c2.928-2.93 2.928-7.679-.001-10.607z"/><path d="m216.148 403.459-13.448-13.448c-2.929-2.929-7.678-2.929-10.606 0-2.929 2.929-2.929 7.678 0 10.606l8.145 8.145-7.967 7.967c-2.929 2.929-2.929 7.678 0 10.606 1.464 1.464 3.384 2.197 5.303 2.197s3.839-.732 5.303-2.197l13.271-13.271c2.928-2.927 2.928-7.676-.001-10.605z"/><path d="m179.756 380.715c-3.873-1.47-8.204.478-9.673 4.35l-15.902 41.893c-1.47 3.873.478 8.204 4.35 9.673.876.333 1.775.49 2.66.49 3.025 0 5.876-1.844 7.013-4.84l15.902-41.893c1.471-3.872-.477-8.203-4.35-9.673z"/></g></g></svg>