<svg height="512" viewBox="0 0 64 64" width="512" xmlns="http://www.w3.org/2000/svg"><g id="Graphic_Designer-Computer-Monitor-Graphic_Tablet-Designer" data-name="Graphic Designer-Computer-Monitor-Graphic Tablet-Designer"><path d="m56 57h-48l6-9h36l1.08 1.63z" fill="#c6c5ca"/><path d="m54 5v22h-44v-22a2.006 2.006 0 0 1 2-2h40a2.006 2.006 0 0 1 2 2z" fill="#5aaae7"/><path d="m59.16 37.55-2.82 2.83-.01-.01-2.83-2.82 2.83-2.83z" fill="#c6c5ca"/><path d="m56 57v3a1 1 0 0 1 -1 1h-46a1 1 0 0 1 -1-1v-3z" fill="#acabb1"/><path d="m54 27v4a2.006 2.006 0 0 1 -2 2h-40a2.006 2.006 0 0 1 -2-2v-4z" fill="#c6c5ca"/><path d="m42 39v4h-20v-4h5 10z" fill="#898890"/><g fill="#3d9ae2"><path d="m43 21v4h-4v-2-2h2z"/><path d="m43 9v4h-2-2v-2-2z"/><path d="m29 23v2h-4v-4h2 2z"/><path d="m29 11v2h-2-2v-4h4z"/></g><path d="m27 33h10v6h-10z" fill="#acabb1"/><path d="m27 33h10v2h-10z" fill="#898890"/><path d="m41 19v4h-4v-2-2h2z" fill="#ff9811"/><path d="m41 7v4h-2-2v-2-2z" fill="#ff9811"/><path d="m27 21v2h-4v-4h2 2z" fill="#ff9811"/><path d="m27 9v2h-2-2v-4h4z" fill="#ff9811"/><path d="m51.08 49.63-.37.37-2.98 2.98-2.13.71-2.12 2.12-1.41-1.41 2.12-2.13.71-2.12 2.15-2.15h2.95z" fill="#acabb1"/><path d="m56.34 40.38-7.63 7.62-2.98 2.98-2.13.71-.7-.71-.71-.71.71-2.12 10.6-10.6 2.83 2.82z" fill="#e6e7e8"/><path d="m47 29h2v2h-2z" fill="#898890"/><path d="m27 8h10v2h-10z" fill="#ffa733"/><path d="m38 11h2v8h-2z" fill="#ffa733"/><path d="m27 20h10v2h-10z" fill="#ffa733"/><path d="m24 11h2v8h-2z" fill="#ffa733"/><path d="m23 52h14v2h-14z" fill="#898890"/><path d="m40.337 51.042h3v2h-3z" fill="#898890" transform="matrix(.707 -.707 .707 .707 -24.545 44.826)"/></g></svg>